<?xml version="1.0" standalone="no"?>
<!DOCTYPE svg PUBLIC "-//W3C//DTD SVG 20010904//EN"
 "http://www.w3.org/TR/2001/REC-SVG-20010904/DTD/svg10.dtd">
<svg version="1.0" xmlns="http://www.w3.org/2000/svg"
 width="961.000000pt" height="1280.000000pt" viewBox="0 0 961.000000 1280.000000"
 preserveAspectRatio="xMidYMid meet">
<g transform="translate(0.000000,1280.000000) scale(0.100000,-0.100000)"
fill="#000000" stroke="none">
<path d="M5835 12531 c-86 -26 -131 -47 -207 -98 -163 -107 -285 -304 -334
-536 -13 -62 -13 -77 0 -128 23 -86 39 -119 85 -172 22 -27 41 -59 41 -71 0
-54 -70 -164 -172 -271 -55 -58 -106 -105 -114 -105 -19 0 -30 32 -39 106 -11
83 -30 142 -56 170 l-22 24 37 78 c55 118 76 200 65 255 -12 65 -42 120 -86
156 -69 57 -152 74 -470 95 l-83 5 -24 -47 c-57 -114 -73 -210 -52 -311 18
-86 60 -164 126 -231 55 -56 158 -126 200 -135 42 -9 148 20 198 56 52 36 74
32 98 -19 18 -39 30 -160 17 -179 -6 -9 -26 -7 -78 8 -327 91 -647 -58 -721
-335 -21 -78 -18 -151 8 -197 22 -39 22 -41 5 -103 -31 -115 -15 -232 36 -275
50 -41 -7 -93 -130 -120 -105 -23 -136 -37 -177 -80 -55 -58 -74 -38 -91 99
-10 75 -30 128 -65 172 -17 20 -30 39 -30 43 0 3 21 31 47 62 71 88 97 153 95
238 -1 39 -10 105 -21 148 -61 237 -217 358 -515 403 -116 17 -113 19 -182
-87 -118 -182 -117 -379 6 -561 67 -101 142 -170 213 -196 75 -28 189 -46 247
-38 55 7 89 -13 119 -72 38 -76 64 -301 38 -336 -14 -20 0 -24 -192 58 -38 16
-79 26 -112 26 -53 0 -53 0 -77 48 -13 26 -45 75 -71 110 -67 92 -124 117
-260 116 -85 0 -110 -4 -163 -26 -80 -34 -369 -226 -455 -303 -15 -14 -33 -25
-40 -25 -23 0 -117 -49 -158 -82 -22 -18 -66 -66 -96 -106 -35 -47 -59 -70
-65 -64 -5 5 -16 61 -23 123 -31 258 -59 337 -141 389 -90 57 -201 63 -320 19
-111 -42 -214 -177 -214 -282 0 -95 54 -217 150 -337 33 -41 60 -78 60 -82 0
-18 -38 -4 -167 61 -183 93 -393 179 -470 193 -113 21 -216 -20 -259 -103 -7
-15 -14 -54 -14 -86 0 -81 34 -149 114 -229 108 -107 253 -162 499 -188 70 -8
130 -16 134 -19 8 -9 -48 -32 -177 -72 -168 -53 -395 -151 -435 -189 -64 -61
-60 -136 13 -206 91 -88 219 -130 397 -130 165 0 262 33 387 130 97 76 99 74
68 -78 -33 -167 -42 -267 -28 -315 28 -93 126 -149 260 -148 89 0 153 19 230
66 32 20 66 35 76 33 9 -2 26 -18 37 -36 69 -112 142 -218 201 -292 119 -150
475 -494 849 -820 571 -498 695 -614 695 -649 0 -34 -63 -3 -305 154 -770 498
-1316 753 -1830 854 -352 69 -708 51 -1018 -50 -109 -36 -319 -137 -325 -156
-5 -18 20 -21 243 -33 1020 -55 1788 -243 2535 -620 292 -148 420 -230 420
-270 0 -19 -12 -26 -135 -75 -130 -53 -367 -164 -387 -183 -32 -27 -20 -56 70
-166 132 -162 197 -259 233 -344 77 -184 102 -331 102 -582 0 -296 -37 -517
-193 -1165 -186 -774 -216 -967 -207 -1343 4 -169 10 -239 26 -315 60 -277
161 -485 333 -687 85 -100 98 -120 98 -151 0 -40 -29 -69 -127 -128 -234 -143
-433 -445 -355 -541 l20 -25 1802 0 1802 0 34 37 c40 45 41 57 10 125 -75 160
-221 313 -391 408 -27 16 -65 42 -82 59 -52 48 -46 79 39 221 119 198 187 378
235 620 28 141 25 568 -5 765 -35 225 -76 411 -183 839 -173 688 -203 862
-203 1176 -1 226 10 308 60 466 62 198 136 314 334 528 178 192 177 187 30
253 -153 68 -341 142 -497 194 -76 26 -144 52 -152 59 -7 8 -10 21 -7 33 9 27
132 143 306 288 461 384 809 586 1188 690 184 50 323 67 555 66 126 -1 195 2
192 9 -18 28 -228 109 -350 135 -248 53 -540 8 -803 -124 -283 -142 -504 -317
-932 -737 -153 -151 -289 -277 -307 -284 -83 -34 -82 14 7 214 34 77 129 304
210 505 162 401 232 565 291 682 34 68 48 84 109 129 131 95 176 174 187 327
6 83 7 85 64 165 90 127 132 172 153 164 9 -4 26 -26 36 -50 16 -36 18 -50 9
-81 -19 -70 2 -80 115 -49 61 16 65 16 152 -6 49 -12 100 -29 113 -38 22 -14
23 -18 16 -97 -11 -131 8 -134 165 -21 42 31 87 69 99 86 41 55 60 42 160
-108 76 -115 92 -125 130 -84 45 48 117 201 136 287 10 44 21 83 25 88 5 4 59
-26 122 -67 128 -86 274 -167 301 -167 46 0 37 121 -20 292 -20 60 -34 110
-31 114 4 3 48 -8 100 -24 97 -31 259 -72 365 -93 99 -18 114 -2 67 74 -51 81
-135 175 -209 233 -41 32 -71 62 -66 67 4 4 48 1 97 -9 72 -13 119 -15 244
-10 150 7 234 17 247 30 20 19 -127 107 -330 197 -65 28 -116 57 -114 62 2 6
52 27 113 47 139 47 259 97 274 115 26 32 -95 75 -342 121 -89 17 -148 33
-148 40 0 6 26 31 58 55 91 69 234 215 230 235 -4 25 -54 34 -173 33 -55 -1
-106 -1 -113 0 -21 2 -132 112 -132 131 0 9 11 49 25 89 31 91 42 166 26 176
-18 11 -112 -23 -254 -92 -111 -55 -138 -64 -170 -60 -21 3 -41 7 -43 10 -3 3
-14 49 -25 103 -23 111 -50 181 -74 190 -32 12 -183 -111 -283 -231 l-42 -50
-21 25 c-18 22 -100 130 -137 181 -16 20 -5 47 35 90 24 26 25 26 81 13 34 -8
116 -14 200 -14 125 0 147 2 170 19 15 10 72 41 127 69 308 154 477 338 520
565 19 100 20 221 2 236 -8 6 -57 15 -110 21 -225 25 -459 -37 -673 -180 -91
-61 -302 -268 -327 -321 -46 -99 -58 -210 -32 -297 18 -60 11 -83 -34 -106
-26 -14 -31 -13 -62 10 -52 38 -69 29 -109 -53 -19 -39 -43 -80 -54 -92 -20
-22 -114 -61 -146 -61 -26 0 -88 30 -94 46 -3 7 7 54 22 104 22 77 24 96 15
131 l-10 40 71 53 c102 77 220 203 237 251 7 22 13 69 13 105 0 138 -64 200
-352 341 l-202 100 -43 -30 c-268 -184 -344 -438 -212 -706 64 -132 131 -172
275 -166 36 2 85 3 110 4 l45 2 3 -40 c4 -49 -13 -110 -37 -134 -16 -16 -24
-17 -60 -8 -22 6 -44 8 -48 4 -4 -4 -2 -34 5 -65 16 -76 15 -117 -1 -131 -19
-15 -283 -121 -303 -121 -9 0 -31 -15 -48 -33 -17 -18 -74 -64 -126 -103 -53
-39 -131 -102 -175 -141 -122 -107 -114 -105 -191 -34 -93 87 -198 155 -370
237 -162 79 -192 100 -152 108 12 3 106 7 207 10 210 7 359 26 475 63 66 20
89 33 123 69 82 85 130 219 118 329 -16 152 -117 276 -283 345 -36 16 -68 33
-70 38 -2 6 35 28 82 51 46 22 118 68 159 100 84 67 177 172 177 201 0 10 -21
37 -47 61 -126 111 -295 134 -530 73 -150 -39 -230 -81 -312 -162 -58 -58 -73
-80 -86 -126 -13 -45 -23 -60 -48 -73 -61 -31 -231 -28 -370 8 -52 14 -50 18
74 167 90 108 137 180 150 233 15 57 24 64 92 73 27 3 85 23 130 44 94 44 161
110 252 247 152 228 162 431 35 653 -34 58 -37 59 -125 33z m-156 -1506 c19
-20 58 -49 88 -66 29 -17 53 -34 53 -38 0 -4 -24 -23 -52 -42 -113 -73 -261
-234 -385 -419 -62 -93 -78 -107 -88 -83 -4 10 -11 108 -16 218 -8 196 -26
313 -60 388 -7 15 -9 30 -5 35 4 4 83 7 174 7 139 0 172 3 197 17 43 25 56 22
94 -17z m-985 -757 c-1 -84 -10 -88 -196 -88 l-159 0 3 28 c3 25 7 28 63 34
67 9 177 41 215 63 14 8 36 14 50 12 23 -2 25 -6 24 -49z m211 -43 c56 -25 59
-28 40 -41 -14 -10 -41 -14 -90 -12 -76 3 -84 11 -70 65 7 31 28 28 120 -12z
m2495 5 c0 -24 -26 -38 -42 -22 -8 8 -8 15 2 27 18 21 40 19 40 -5z m-344
-146 c21 -5 54 -61 54 -89 0 -19 -8 -18 -100 4 -86 21 -98 38 -48 70 34 21 57
25 94 15z m-3445 -110 c74 -21 229 -113 234 -139 2 -11 6 -50 9 -86 3 -36 14
-90 25 -120 21 -53 101 -166 160 -224 38 -37 39 -48 6 -63 -45 -21 -58 -16
-51 18 8 45 -13 48 -113 15 -112 -36 -229 -94 -314 -156 -37 -27 -74 -49 -82
-49 -9 0 -26 24 -39 54 -47 106 -165 191 -328 236 -57 16 -103 20 -210 20 -76
0 -138 4 -138 8 0 12 53 60 148 135 74 59 88 66 140 72 202 20 316 58 367 119
37 46 65 103 65 135 0 21 24 40 51 41 8 0 40 -7 70 -16z m3213 -170 c48 -52
86 -97 83 -100 -3 -3 -52 -10 -109 -15 -122 -11 -323 -45 -349 -60 -27 -14
-24 -24 19 -56 98 -77 237 -142 350 -164 104 -20 95 -33 -35 -55 -49 -8 -122
-26 -163 -40 -89 -29 -303 -134 -308 -151 -7 -25 133 -48 382 -63 87 -5 162
-12 165 -16 9 -9 -28 -33 -69 -44 -95 -28 -236 -42 -335 -34 -153 13 -252 7
-472 -27 -208 -33 -241 -33 -224 -2 33 60 116 133 200 177 151 78 229 167 276
316 15 47 31 68 114 148 165 160 323 282 365 282 14 0 51 -33 110 -96z m-1631
-86 c3 -90 12 -196 21 -235 21 -99 70 -222 101 -256 49 -52 166 -99 295 -118
44 -6 83 -15 86 -20 9 -16 -28 -72 -87 -131 -32 -32 -65 -73 -73 -91 -7 -18
-27 -47 -44 -64 -33 -36 -62 -41 -141 -22 -24 5 -46 7 -49 4 -3 -3 16 -25 42
-49 47 -43 47 -45 33 -73 -36 -69 -386 -453 -414 -453 -10 0 -13 44 -13 234 0
363 33 700 100 1036 45 226 107 419 128 406 5 -3 12 -79 15 -168z m-200 -11
c-3 -12 -18 -67 -33 -122 -69 -244 -99 -399 -125 -644 -8 -79 -19 -149 -24
-154 -7 -7 -35 14 -83 60 -40 38 -143 132 -228 210 -209 190 -285 272 -262
286 4 3 27 1 52 -3 25 -5 77 -9 115 -10 60 0 81 5 143 35 106 51 204 127 327
257 60 64 113 114 116 112 4 -2 5 -14 2 -27z m-527 -739 c199 -201 314 -330
314 -354 0 -19 -10 -23 -177 -64 -236 -59 -334 -73 -477 -68 -127 4 -156 13
-156 47 0 9 18 54 40 101 27 57 40 99 40 128 0 31 5 44 18 49 93 34 162 142
169 268 5 78 9 95 20 95 5 0 99 -91 209 -202z m-1488 35 c15 -28 24 -133 12
-133 -6 0 -45 17 -88 39 -42 21 -105 49 -139 61 -114 41 -104 50 60 50 129 0
147 -2 155 -17z m3766 -22 c5 -7 -56 -71 -68 -71 -12 0 -76 32 -81 41 -10 15
-1 21 42 29 55 11 101 11 107 1z m-315 -20 c30 -16 27 -58 -10 -147 -44 -106
-51 -141 -33 -182 8 -19 14 -36 14 -38 0 -2 -18 -13 -41 -25 -111 -56 -169
-150 -177 -284 -6 -109 17 -164 102 -242 33 -31 64 -61 68 -68 5 -7 -24 -78
-66 -166 -41 -85 -106 -226 -146 -314 -85 -190 -129 -270 -141 -258 -5 5 6 82
26 176 52 251 67 368 66 518 0 146 -10 220 -42 321 -60 184 -196 332 -399 433
-30 15 -58 33 -62 39 -16 25 88 160 135 175 42 13 292 59 387 70 93 12 291 7
319 -8z m154 -66 c43 -30 44 -37 17 -72 -35 -44 -15 -53 125 -53 142 0 159 -8
122 -56 -73 -96 -152 -184 -167 -184 -9 0 -42 14 -73 31 -35 19 -78 33 -113
36 -69 7 -90 31 -81 94 8 64 95 229 120 229 7 0 29 -11 50 -25z m-2590 -96
c35 -9 37 -12 37 -52 0 -31 -9 -59 -33 -97 -50 -85 -61 -75 -65 53 -3 118 -5
115 61 96z m-1565 -121 c137 -131 343 -294 407 -324 73 -34 150 -40 219 -19
31 10 59 15 62 12 4 -4 -18 -65 -53 -145 -3 -8 16 -22 53 -40 55 -25 67 -27
185 -26 l127 1 47 -111 c108 -249 238 -493 551 -1032 112 -194 211 -368 219
-388 14 -34 14 -36 -3 -36 -10 0 -63 37 -118 82 -54 45 -252 208 -439 362
-187 154 -387 320 -445 370 -359 312 -588 558 -757 815 -77 116 -90 151 -102
276 -7 82 -19 135 -45 208 -20 53 -31 97 -25 97 5 0 58 -46 117 -102z m815 -2
c53 -22 67 -42 67 -96 0 -47 -2 -50 -43 -75 -62 -36 -67 -34 -67 33 -1 31 -7
75 -15 97 -8 22 -15 43 -15 48 0 11 38 8 73 -7z m2300 -125 c177 -190 269
-462 270 -801 0 -240 -31 -447 -129 -870 -68 -297 -78 -330 -105 -359 -25 -26
4 -26 -322 0 -184 15 -180 12 -196 124 -25 167 -101 1090 -101 1227 0 76 1 78
43 130 117 143 214 267 321 408 112 148 149 190 166 190 4 0 28 -22 53 -49z
m-731 -366 c3 -198 13 -470 22 -605 67 -1084 66 -1037 15 -1051 -14 -3 -73
-10 -131 -14 l-104 -7 -34 29 c-41 34 -83 123 -220 463 -129 323 -245 670
-309 922 -59 233 -109 514 -94 529 7 7 31 7 73 -2 104 -20 247 -6 490 50 118
27 231 49 250 48 l35 -2 7 -360z"/>
</g>
</svg>
