<?xml version="1.0" encoding="UTF-8"?>
<svg xmlns="http://www.w3.org/2000/svg" width="60pt" height="79pt" viewBox="0 0 60 79" version="1.1">
<g id="surface1">
<path style=" stroke:none;fill-rule:nonzero;fill:rgb(0%,0%,0%);fill-opacity:1;" d="M 36.4375 1.660156 C 35.902344 1.820312 35.621094 1.949219 35.144531 2.265625 C 34.128906 2.925781 33.367188 4.140625 33.058594 5.574219 C 32.980469 5.957031 32.980469 6.046875 33.058594 6.363281 C 33.203125 6.894531 33.304688 7.097656 33.589844 7.425781 C 33.726562 7.589844 33.847656 7.789062 33.847656 7.863281 C 33.847656 8.195312 33.410156 8.875 32.773438 9.535156 C 32.429688 9.894531 32.109375 10.183594 32.0625 10.183594 C 31.941406 10.183594 31.875 9.984375 31.816406 9.53125 C 31.75 9.015625 31.628906 8.652344 31.46875 8.480469 L 31.332031 8.332031 L 31.5625 7.851562 C 31.90625 7.121094 32.035156 6.617188 31.96875 6.277344 C 31.890625 5.875 31.703125 5.535156 31.429688 5.3125 C 31 4.960938 30.480469 4.855469 28.496094 4.726562 L 27.976562 4.695312 L 27.828125 4.988281 C 27.472656 5.691406 27.371094 6.28125 27.503906 6.90625 C 27.613281 7.4375 27.875 7.917969 28.289062 8.332031 C 28.632812 8.675781 29.277344 9.109375 29.539062 9.164062 C 29.800781 9.222656 30.460938 9.042969 30.773438 8.820312 C 31.097656 8.597656 31.238281 8.621094 31.386719 8.9375 C 31.5 9.175781 31.574219 9.925781 31.492188 10.042969 C 31.453125 10.097656 31.332031 10.085938 31.003906 9.992188 C 28.964844 9.429688 26.964844 10.351562 26.503906 12.058594 C 26.371094 12.542969 26.390625 12.992188 26.554688 13.277344 C 26.691406 13.515625 26.691406 13.527344 26.585938 13.910156 C 26.390625 14.621094 26.492188 15.34375 26.808594 15.609375 C 27.121094 15.863281 26.765625 16.183594 25.996094 16.347656 C 25.339844 16.492188 25.148438 16.578125 24.890625 16.84375 C 24.546875 17.199219 24.429688 17.078125 24.324219 16.230469 C 24.261719 15.769531 24.136719 15.441406 23.917969 15.171875 C 23.8125 15.046875 23.730469 14.929688 23.730469 14.90625 C 23.730469 14.886719 23.863281 14.714844 24.023438 14.523438 C 24.46875 13.980469 24.628906 13.578125 24.617188 13.054688 C 24.609375 12.8125 24.554688 12.40625 24.484375 12.140625 C 24.105469 10.675781 23.128906 9.929688 21.269531 9.652344 C 20.546875 9.546875 20.5625 9.535156 20.132812 10.191406 C 19.394531 11.3125 19.402344 12.527344 20.171875 13.652344 C 20.589844 14.277344 21.058594 14.703125 21.5 14.863281 C 21.96875 15.035156 22.679688 15.144531 23.042969 15.097656 C 23.386719 15.054688 23.597656 15.175781 23.785156 15.539062 C 24.023438 16.011719 24.1875 17.398438 24.023438 17.613281 C 23.9375 17.738281 24.023438 17.761719 22.824219 17.257812 C 22.585938 17.15625 22.332031 17.097656 22.125 17.097656 C 21.792969 17.097656 21.792969 17.097656 21.644531 16.800781 C 21.5625 16.640625 21.363281 16.335938 21.199219 16.121094 C 20.78125 15.554688 20.425781 15.398438 19.578125 15.40625 C 19.046875 15.40625 18.890625 15.429688 18.558594 15.566406 C 18.058594 15.773438 16.253906 16.960938 15.71875 17.4375 C 15.625 17.523438 15.511719 17.589844 15.46875 17.589844 C 15.324219 17.589844 14.738281 17.890625 14.480469 18.097656 C 14.34375 18.207031 14.070312 18.503906 13.882812 18.75 C 13.664062 19.039062 13.515625 19.183594 13.476562 19.144531 C 13.445312 19.113281 13.375 18.769531 13.332031 18.386719 C 13.140625 16.792969 12.964844 16.304688 12.453125 15.984375 C 11.890625 15.632812 11.195312 15.597656 10.453125 15.867188 C 9.761719 16.128906 9.117188 16.960938 9.117188 17.609375 C 9.117188 18.195312 9.453125 18.949219 10.054688 19.6875 C 10.261719 19.941406 10.429688 20.167969 10.429688 20.195312 C 10.429688 20.304688 10.191406 20.21875 9.386719 19.816406 C 8.242188 19.242188 6.933594 18.714844 6.449219 18.625 C 5.746094 18.496094 5.101562 18.75 4.832031 19.261719 C 4.789062 19.355469 4.746094 19.59375 4.746094 19.792969 C 4.746094 20.292969 4.957031 20.710938 5.457031 21.207031 C 6.132812 21.867188 7.039062 22.207031 8.574219 22.367188 C 9.011719 22.417969 9.386719 22.464844 9.410156 22.484375 C 9.460938 22.539062 9.109375 22.679688 8.304688 22.929688 C 7.257812 23.253906 5.839844 23.859375 5.589844 24.09375 C 5.1875 24.472656 5.214844 24.933594 5.671875 25.367188 C 6.238281 25.910156 7.039062 26.167969 8.148438 26.167969 C 9.179688 26.167969 9.785156 25.964844 10.566406 25.367188 C 11.171875 24.898438 11.183594 24.910156 10.992188 25.847656 C 10.785156 26.878906 10.730469 27.496094 10.816406 27.792969 C 10.992188 28.367188 11.601562 28.710938 12.441406 28.707031 C 12.996094 28.707031 13.394531 28.589844 13.875 28.296875 C 14.074219 28.175781 14.289062 28.082031 14.351562 28.09375 C 14.40625 28.105469 14.511719 28.207031 14.582031 28.316406 C 15.011719 29.007812 15.46875 29.660156 15.835938 30.117188 C 16.578125 31.042969 18.804688 33.167969 21.136719 35.179688 C 24.703125 38.253906 25.480469 38.96875 25.480469 39.183594 C 25.480469 39.394531 25.085938 39.203125 23.574219 38.234375 C 18.765625 35.160156 15.355469 33.585938 12.144531 32.964844 C 9.949219 32.539062 7.726562 32.648438 5.789062 33.273438 C 5.109375 33.496094 3.796875 34.117188 3.757812 34.234375 C 3.726562 34.347656 3.882812 34.363281 5.277344 34.4375 C 11.648438 34.777344 16.441406 35.9375 21.105469 38.265625 C 22.929688 39.179688 23.730469 39.683594 23.730469 39.933594 C 23.730469 40.050781 23.65625 40.09375 22.886719 40.394531 C 22.074219 40.722656 20.59375 41.40625 20.46875 41.523438 C 20.269531 41.691406 20.34375 41.871094 20.90625 42.550781 C 21.730469 43.546875 22.136719 44.148438 22.363281 44.671875 C 22.84375 45.808594 23 46.714844 23 48.265625 C 23 50.089844 22.769531 51.453125 21.792969 55.453125 C 20.632812 60.230469 20.445312 61.421875 20.5 63.742188 C 20.527344 64.785156 20.5625 65.21875 20.664062 65.6875 C 21.039062 67.398438 21.667969 68.679688 22.742188 69.925781 C 23.273438 70.542969 23.355469 70.667969 23.355469 70.859375 C 23.355469 71.105469 23.175781 71.285156 22.5625 71.648438 C 21.101562 72.53125 19.859375 74.394531 20.34375 74.988281 L 20.46875 75.140625 L 42.976562 75.140625 L 43.1875 74.914062 C 43.4375 74.636719 43.445312 74.5625 43.25 74.144531 C 42.78125 73.15625 41.871094 72.210938 40.808594 71.625 C 40.640625 71.527344 40.402344 71.367188 40.296875 71.261719 C 39.972656 70.964844 40.011719 70.773438 40.542969 69.898438 C 41.285156 68.675781 41.710938 67.5625 42.007812 66.070312 C 42.183594 65.199219 42.164062 62.5625 41.976562 61.347656 C 41.757812 59.960938 41.503906 58.8125 40.835938 56.171875 C 39.753906 51.925781 39.566406 50.851562 39.566406 48.914062 C 39.5625 47.515625 39.628906 47.011719 39.941406 46.035156 C 40.328125 44.8125 40.789062 44.097656 42.027344 42.777344 C 43.140625 41.59375 43.132812 41.625 42.214844 41.214844 C 41.257812 40.796875 40.085938 40.339844 39.109375 40.019531 C 38.636719 39.859375 38.210938 39.699219 38.160156 39.65625 C 38.117188 39.605469 38.097656 39.523438 38.117188 39.449219 C 38.175781 39.285156 38.941406 38.566406 40.027344 37.671875 C 42.90625 35.304688 45.082031 34.054688 47.449219 33.414062 C 48.597656 33.105469 49.464844 33 50.914062 33.007812 C 51.699219 33.011719 52.132812 32.996094 52.113281 32.953125 C 52 32.777344 50.6875 32.277344 49.925781 32.117188 C 48.378906 31.792969 46.554688 32.070312 44.914062 32.882812 C 43.144531 33.761719 41.765625 34.839844 39.09375 37.433594 C 38.136719 38.363281 37.289062 39.140625 37.175781 39.183594 C 36.65625 39.394531 36.664062 39.097656 37.21875 37.863281 C 37.429688 37.390625 38.023438 35.988281 38.53125 34.746094 C 39.542969 32.273438 39.980469 31.261719 40.347656 30.539062 C 40.558594 30.117188 40.648438 30.019531 41.027344 29.742188 C 41.847656 29.15625 42.128906 28.667969 42.195312 27.722656 C 42.234375 27.210938 42.238281 27.199219 42.597656 26.707031 C 43.15625 25.921875 43.421875 25.644531 43.550781 25.695312 C 43.605469 25.71875 43.714844 25.855469 43.777344 26.003906 C 43.875 26.222656 43.886719 26.3125 43.832031 26.503906 C 43.714844 26.933594 43.84375 26.996094 44.550781 26.804688 C 44.929688 26.707031 44.957031 26.707031 45.5 26.839844 C 45.804688 26.914062 46.125 27.019531 46.207031 27.074219 C 46.34375 27.164062 46.347656 27.1875 46.304688 27.675781 C 46.238281 28.484375 46.355469 28.5 47.335938 27.804688 C 47.597656 27.613281 47.878906 27.378906 47.953125 27.273438 C 48.210938 26.933594 48.328125 27.015625 48.953125 27.941406 C 49.425781 28.648438 49.527344 28.710938 49.765625 28.457031 C 50.046875 28.164062 50.496094 27.21875 50.613281 26.6875 C 50.675781 26.414062 50.746094 26.175781 50.769531 26.144531 C 50.800781 26.121094 51.136719 26.304688 51.53125 26.558594 C 52.332031 27.089844 53.242188 27.589844 53.410156 27.589844 C 53.699219 27.589844 53.644531 26.839844 53.285156 25.785156 C 53.160156 25.414062 53.074219 25.105469 53.09375 25.082031 C 53.117188 25.0625 53.394531 25.132812 53.71875 25.230469 C 54.324219 25.421875 55.335938 25.675781 55.996094 25.804688 C 56.617188 25.914062 56.710938 25.816406 56.414062 25.347656 C 56.097656 24.847656 55.574219 24.269531 55.109375 23.910156 C 54.855469 23.710938 54.667969 23.527344 54.699219 23.496094 C 54.722656 23.472656 54.996094 23.488281 55.304688 23.550781 C 55.753906 23.632812 56.046875 23.644531 56.828125 23.613281 C 57.765625 23.570312 58.289062 23.507812 58.371094 23.429688 C 58.496094 23.3125 57.578125 22.769531 56.308594 22.210938 C 55.902344 22.039062 55.585938 21.859375 55.597656 21.828125 C 55.609375 21.792969 55.921875 21.664062 56.304688 21.539062 C 57.171875 21.25 57.921875 20.941406 58.015625 20.828125 C 58.175781 20.632812 57.421875 20.367188 55.878906 20.082031 C 55.324219 19.976562 54.953125 19.878906 54.953125 19.835938 C 54.953125 19.800781 55.117188 19.644531 55.316406 19.496094 C 55.882812 19.070312 56.777344 18.171875 56.753906 18.046875 C 56.726562 17.890625 56.414062 17.835938 55.671875 17.84375 C 55.328125 17.847656 55.011719 17.847656 54.964844 17.84375 C 54.835938 17.832031 54.140625 17.152344 54.140625 17.035156 C 54.140625 16.980469 54.210938 16.730469 54.296875 16.484375 C 54.492188 15.921875 54.5625 15.460938 54.460938 15.398438 C 54.347656 15.332031 53.761719 15.539062 52.875 15.964844 C 52.179688 16.304688 52.011719 16.363281 51.8125 16.335938 C 51.683594 16.320312 51.558594 16.292969 51.542969 16.273438 C 51.527344 16.257812 51.457031 15.972656 51.386719 15.640625 C 51.246094 14.953125 51.078125 14.523438 50.925781 14.46875 C 50.726562 14.394531 49.785156 15.152344 49.160156 15.890625 L 48.898438 16.203125 L 48.765625 16.046875 C 48.652344 15.910156 48.140625 15.246094 47.910156 14.929688 C 47.808594 14.804688 47.878906 14.640625 48.128906 14.375 C 48.277344 14.214844 48.285156 14.214844 48.632812 14.292969 C 48.847656 14.34375 49.359375 14.378906 49.882812 14.378906 C 50.664062 14.378906 50.800781 14.367188 50.945312 14.261719 C 51.039062 14.203125 51.394531 14.011719 51.738281 13.835938 C 53.660156 12.886719 54.71875 11.75 54.984375 10.351562 C 55.105469 9.734375 55.109375 8.984375 54.996094 8.894531 C 54.949219 8.855469 54.640625 8.800781 54.3125 8.765625 C 52.90625 8.609375 51.445312 8.992188 50.109375 9.875 C 49.539062 10.25 48.222656 11.527344 48.066406 11.855469 C 47.777344 12.46875 47.703125 13.152344 47.867188 13.6875 C 47.980469 14.058594 47.933594 14.203125 47.652344 14.34375 C 47.492188 14.429688 47.460938 14.421875 47.265625 14.28125 C 46.941406 14.046875 46.835938 14.101562 46.585938 14.609375 C 46.46875 14.847656 46.316406 15.101562 46.25 15.175781 C 46.125 15.3125 45.535156 15.554688 45.335938 15.554688 C 45.175781 15.554688 44.789062 15.367188 44.75 15.269531 C 44.730469 15.226562 44.792969 14.9375 44.886719 14.628906 C 45.023438 14.152344 45.039062 14.035156 44.980469 13.820312 L 44.917969 13.570312 L 45.363281 13.246094 C 46 12.769531 46.734375 11.992188 46.84375 11.695312 C 46.886719 11.558594 46.921875 11.269531 46.921875 11.046875 C 46.921875 10.195312 46.523438 9.8125 44.726562 8.941406 L 43.464844 8.324219 L 43.195312 8.511719 C 41.523438 9.648438 41.046875 11.214844 41.871094 12.867188 C 42.269531 13.683594 42.6875 13.929688 43.589844 13.894531 C 43.8125 13.878906 44.121094 13.875 44.277344 13.867188 L 44.554688 13.855469 L 44.574219 14.101562 C 44.601562 14.40625 44.496094 14.78125 44.34375 14.929688 C 44.246094 15.027344 44.195312 15.035156 43.96875 14.980469 C 43.832031 14.941406 43.695312 14.929688 43.667969 14.953125 C 43.644531 14.980469 43.65625 15.164062 43.699219 15.355469 C 43.800781 15.824219 43.792969 16.078125 43.695312 16.164062 C 43.578125 16.257812 41.925781 16.910156 41.800781 16.910156 C 41.746094 16.910156 41.609375 17.003906 41.503906 17.113281 C 41.398438 17.226562 41.039062 17.507812 40.714844 17.75 C 40.386719 17.992188 39.898438 18.378906 39.625 18.621094 C 38.863281 19.28125 38.910156 19.269531 38.429688 18.832031 C 37.851562 18.292969 37.195312 17.875 36.121094 17.367188 C 35.109375 16.878906 34.921875 16.75 35.171875 16.699219 C 35.246094 16.683594 35.832031 16.65625 36.464844 16.640625 C 37.773438 16.597656 38.707031 16.480469 39.429688 16.25 C 39.84375 16.128906 39.984375 16.046875 40.199219 15.824219 C 40.710938 15.300781 41.007812 14.472656 40.933594 13.792969 C 40.835938 12.855469 40.203125 12.089844 39.167969 11.664062 C 38.941406 11.566406 38.742188 11.460938 38.730469 11.429688 C 38.71875 11.394531 38.949219 11.257812 39.242188 11.117188 C 39.53125 10.980469 39.980469 10.695312 40.234375 10.5 C 40.761719 10.085938 41.339844 9.4375 41.339844 9.257812 C 41.339844 9.195312 41.210938 9.03125 41.046875 8.882812 C 40.261719 8.195312 39.203125 8.054688 37.738281 8.429688 C 36.800781 8.671875 36.300781 8.929688 35.789062 9.429688 C 35.425781 9.789062 35.332031 9.925781 35.25 10.207031 C 35.171875 10.484375 35.109375 10.578125 34.953125 10.660156 C 34.570312 10.851562 33.507812 10.832031 32.640625 10.609375 C 32.316406 10.523438 32.328125 10.5 33.105469 9.578125 C 33.664062 8.914062 33.960938 8.46875 34.039062 8.140625 C 34.132812 7.789062 34.191406 7.746094 34.613281 7.691406 C 34.785156 7.671875 35.144531 7.546875 35.425781 7.417969 C 36.015625 7.148438 36.433594 6.738281 37 5.894531 C 37.949219 4.488281 38.011719 3.234375 37.21875 1.863281 C 37.007812 1.507812 36.988281 1.5 36.4375 1.660156 Z M 35.464844 10.953125 C 35.582031 11.078125 35.828125 11.257812 36.015625 11.363281 C 36.195312 11.46875 36.34375 11.570312 36.34375 11.597656 C 36.34375 11.621094 36.195312 11.738281 36.019531 11.855469 C 35.3125 12.308594 34.390625 13.300781 33.617188 14.441406 C 33.230469 15.015625 33.128906 15.101562 33.066406 14.953125 C 33.042969 14.894531 32.996094 14.289062 32.964844 13.609375 C 32.917969 12.398438 32.804688 11.675781 32.589844 11.214844 C 32.546875 11.121094 32.535156 11.027344 32.558594 11 C 32.585938 10.972656 33.078125 10.953125 33.648438 10.953125 C 34.515625 10.953125 34.722656 10.9375 34.878906 10.851562 C 35.144531 10.695312 35.226562 10.714844 35.464844 10.953125 Z M 29.3125 15.628906 C 29.308594 16.144531 29.25 16.171875 28.089844 16.171875 L 27.097656 16.171875 L 27.113281 15.996094 C 27.132812 15.84375 27.160156 15.824219 27.507812 15.789062 C 27.925781 15.730469 28.613281 15.535156 28.851562 15.398438 C 28.9375 15.347656 29.074219 15.3125 29.164062 15.324219 C 29.308594 15.335938 29.320312 15.363281 29.3125 15.628906 Z M 30.628906 15.890625 C 30.980469 16.046875 31 16.066406 30.878906 16.144531 C 30.792969 16.207031 30.625 16.230469 30.320312 16.21875 C 29.84375 16.203125 29.792969 16.152344 29.882812 15.820312 C 29.925781 15.628906 30.054688 15.644531 30.628906 15.890625 Z M 46.210938 15.863281 C 46.210938 16.011719 46.050781 16.097656 45.949219 15.996094 C 45.898438 15.949219 45.898438 15.90625 45.960938 15.832031 C 46.074219 15.703125 46.210938 15.714844 46.210938 15.863281 Z M 44.0625 16.761719 C 44.195312 16.792969 44.402344 17.140625 44.402344 17.3125 C 44.402344 17.429688 44.351562 17.421875 43.777344 17.289062 C 43.238281 17.15625 43.164062 17.054688 43.476562 16.855469 C 43.6875 16.726562 43.832031 16.699219 44.0625 16.761719 Z M 22.550781 17.441406 C 23.011719 17.570312 23.980469 18.140625 24.011719 18.300781 C 24.023438 18.367188 24.046875 18.609375 24.066406 18.832031 C 24.085938 19.050781 24.15625 19.386719 24.222656 19.570312 C 24.355469 19.898438 24.855469 20.59375 25.222656 20.953125 C 25.460938 21.183594 25.464844 21.25 25.261719 21.34375 C 24.980469 21.472656 24.898438 21.441406 24.941406 21.230469 C 24.992188 20.953125 24.859375 20.933594 24.234375 21.140625 C 23.535156 21.359375 22.804688 21.71875 22.273438 22.101562 C 22.042969 22.269531 21.8125 22.402344 21.761719 22.402344 C 21.707031 22.402344 21.601562 22.253906 21.519531 22.070312 C 21.226562 21.417969 20.488281 20.890625 19.472656 20.613281 C 19.117188 20.515625 18.828125 20.492188 18.160156 20.492188 C 17.683594 20.492188 17.296875 20.464844 17.296875 20.441406 C 17.296875 20.367188 17.628906 20.070312 18.222656 19.609375 C 18.683594 19.242188 18.773438 19.199219 19.097656 19.164062 C 20.359375 19.039062 21.070312 18.804688 21.386719 18.429688 C 21.621094 18.144531 21.792969 17.792969 21.792969 17.597656 C 21.792969 17.464844 21.945312 17.347656 22.113281 17.34375 C 22.164062 17.34375 22.363281 17.386719 22.550781 17.441406 Z M 42.613281 18.492188 C 42.914062 18.8125 43.152344 19.089844 43.132812 19.109375 C 43.113281 19.125 42.808594 19.167969 42.453125 19.199219 C 41.691406 19.269531 40.433594 19.476562 40.273438 19.570312 C 40.105469 19.65625 40.121094 19.71875 40.390625 19.917969 C 41.003906 20.390625 41.871094 20.792969 42.578125 20.929688 C 43.226562 21.050781 43.171875 21.132812 42.359375 21.269531 C 42.050781 21.316406 41.597656 21.429688 41.339844 21.515625 C 40.785156 21.695312 39.449219 22.34375 39.417969 22.445312 C 39.375 22.601562 40.246094 22.742188 41.800781 22.835938 C 42.347656 22.867188 42.8125 22.910156 42.832031 22.933594 C 42.890625 22.992188 42.65625 23.136719 42.402344 23.207031 C 41.808594 23.378906 40.929688 23.464844 40.308594 23.417969 C 39.355469 23.335938 38.738281 23.371094 37.363281 23.582031 C 36.0625 23.785156 35.859375 23.785156 35.964844 23.59375 C 36.167969 23.226562 36.6875 22.773438 37.210938 22.503906 C 38.15625 22.019531 38.644531 21.472656 38.9375 20.550781 C 39.03125 20.261719 39.128906 20.132812 39.648438 19.640625 C 40.679688 18.652344 41.664062 17.898438 41.925781 17.898438 C 42.015625 17.898438 42.246094 18.101562 42.613281 18.492188 Z M 32.429688 19.023438 C 32.449219 19.578125 32.503906 20.230469 32.558594 20.472656 C 32.691406 21.082031 32.996094 21.84375 33.191406 22.050781 C 33.496094 22.375 34.226562 22.664062 35.035156 22.78125 C 35.308594 22.816406 35.550781 22.871094 35.570312 22.902344 C 35.625 23.003906 35.394531 23.347656 35.027344 23.710938 C 34.828125 23.910156 34.621094 24.164062 34.570312 24.273438 C 34.527344 24.386719 34.402344 24.5625 34.296875 24.667969 C 34.089844 24.890625 33.910156 24.921875 33.414062 24.804688 C 33.265625 24.773438 33.128906 24.761719 33.109375 24.78125 C 33.089844 24.796875 33.210938 24.933594 33.371094 25.082031 C 33.664062 25.347656 33.664062 25.359375 33.578125 25.53125 C 33.351562 25.957031 31.167969 28.328125 30.992188 28.328125 C 30.929688 28.328125 30.910156 28.058594 30.910156 26.882812 C 30.910156 24.644531 31.117188 22.5625 31.535156 20.492188 C 31.816406 19.097656 32.203125 17.90625 32.335938 17.984375 C 32.367188 18.003906 32.410156 18.472656 32.429688 19.023438 Z M 31.179688 19.089844 C 31.160156 19.164062 31.066406 19.503906 30.972656 19.84375 C 30.542969 21.347656 30.355469 22.304688 30.195312 23.816406 C 30.144531 24.304688 30.074219 24.738281 30.042969 24.769531 C 30 24.8125 29.824219 24.679688 29.527344 24.398438 C 29.277344 24.164062 28.632812 23.582031 28.101562 23.101562 C 26.796875 21.929688 26.320312 21.421875 26.464844 21.335938 C 26.492188 21.316406 26.632812 21.328125 26.789062 21.355469 C 26.945312 21.386719 27.269531 21.410156 27.507812 21.417969 C 27.882812 21.417969 28.015625 21.386719 28.402344 21.199219 C 29.0625 20.886719 29.675781 20.417969 30.445312 19.613281 C 30.816406 19.21875 31.148438 18.910156 31.167969 18.921875 C 31.191406 18.933594 31.199219 19.007812 31.179688 19.089844 Z M 27.890625 23.652344 C 29.132812 24.890625 29.851562 25.6875 29.851562 25.835938 C 29.851562 25.953125 29.789062 25.976562 28.746094 26.230469 C 27.269531 26.59375 26.660156 26.679688 25.765625 26.648438 C 24.972656 26.625 24.792969 26.570312 24.792969 26.359375 C 24.792969 26.304688 24.902344 26.027344 25.042969 25.738281 C 25.210938 25.386719 25.292969 25.125 25.292969 24.945312 C 25.292969 24.753906 25.324219 24.675781 25.402344 24.644531 C 25.984375 24.433594 26.414062 23.769531 26.460938 22.992188 C 26.492188 22.507812 26.515625 22.402344 26.585938 22.402344 C 26.617188 22.402344 27.203125 22.964844 27.890625 23.652344 Z M 18.597656 23.433594 C 18.691406 23.609375 18.746094 24.253906 18.671875 24.253906 C 18.632812 24.253906 18.390625 24.152344 18.121094 24.015625 C 17.859375 23.886719 17.464844 23.710938 17.253906 23.636719 C 16.542969 23.386719 16.605469 23.328125 17.628906 23.328125 C 18.433594 23.328125 18.546875 23.34375 18.597656 23.433594 Z M 42.113281 23.570312 C 42.144531 23.613281 41.765625 24.007812 41.691406 24.007812 C 41.617188 24.007812 41.214844 23.8125 41.183594 23.753906 C 41.121094 23.664062 41.179688 23.625 41.445312 23.578125 C 41.789062 23.507812 42.078125 23.507812 42.113281 23.570312 Z M 40.148438 23.695312 C 40.335938 23.792969 40.316406 24.050781 40.085938 24.601562 C 39.8125 25.253906 39.765625 25.472656 39.878906 25.722656 C 39.929688 25.839844 39.964844 25.945312 39.964844 25.957031 C 39.964844 25.972656 39.855469 26.039062 39.710938 26.113281 C 39.015625 26.457031 38.65625 27.039062 38.605469 27.867188 C 38.566406 28.539062 38.710938 28.878906 39.242188 29.359375 C 39.449219 29.550781 39.640625 29.734375 39.667969 29.78125 C 39.699219 29.824219 39.515625 30.261719 39.253906 30.804688 C 39 31.328125 38.59375 32.199219 38.34375 32.742188 C 37.8125 33.914062 37.539062 34.40625 37.460938 34.335938 C 37.429688 34.304688 37.5 33.828125 37.625 33.246094 C 37.949219 31.699219 38.042969 30.976562 38.035156 30.050781 C 38.035156 29.148438 37.972656 28.691406 37.773438 28.070312 C 37.398438 26.933594 36.550781 26.019531 35.28125 25.398438 C 35.097656 25.304688 34.921875 25.195312 34.894531 25.15625 C 34.796875 25.003906 35.445312 24.167969 35.738281 24.078125 C 36 23.996094 37.5625 23.710938 38.15625 23.644531 C 38.738281 23.570312 39.972656 23.601562 40.148438 23.695312 Z M 41.109375 24.101562 C 41.378906 24.285156 41.382812 24.328125 41.214844 24.546875 C 40.996094 24.816406 41.121094 24.871094 41.996094 24.871094 C 42.882812 24.871094 42.988281 24.921875 42.757812 25.21875 C 42.300781 25.8125 41.808594 26.355469 41.714844 26.355469 C 41.660156 26.355469 41.453125 26.265625 41.257812 26.164062 C 41.039062 26.046875 40.773438 25.957031 40.554688 25.941406 C 40.121094 25.898438 39.992188 25.75 40.046875 25.359375 C 40.097656 24.964844 40.640625 23.945312 40.796875 23.945312 C 40.839844 23.945312 40.976562 24.015625 41.109375 24.101562 Z M 24.933594 24.695312 C 25.152344 24.75 25.167969 24.769531 25.167969 25.015625 C 25.167969 25.207031 25.109375 25.378906 24.960938 25.613281 C 24.648438 26.136719 24.578125 26.078125 24.554688 25.285156 C 24.535156 24.558594 24.523438 24.578125 24.933594 24.695312 Z M 15.164062 25.441406 C 16.019531 26.25 17.304688 27.253906 17.703125 27.441406 C 18.160156 27.648438 18.640625 27.6875 19.070312 27.558594 C 19.265625 27.496094 19.441406 27.464844 19.457031 27.484375 C 19.484375 27.507812 19.347656 27.882812 19.128906 28.378906 C 19.109375 28.425781 19.226562 28.515625 19.457031 28.625 C 19.800781 28.78125 19.878906 28.792969 20.613281 28.785156 L 21.40625 28.78125 L 21.699219 29.464844 C 22.375 31 23.1875 32.507812 25.140625 35.832031 C 25.839844 37.03125 26.460938 38.105469 26.507812 38.230469 C 26.597656 38.4375 26.597656 38.449219 26.492188 38.449219 C 26.429688 38.449219 26.097656 38.222656 25.753906 37.945312 C 25.417969 37.667969 24.179688 36.660156 23.011719 35.710938 C 21.84375 34.761719 20.59375 33.734375 20.234375 33.425781 C 17.992188 31.5 16.5625 29.984375 15.503906 28.398438 C 15.023438 27.679688 14.945312 27.464844 14.867188 26.695312 C 14.824219 26.1875 14.75 25.859375 14.585938 25.410156 C 14.464844 25.082031 14.394531 24.8125 14.433594 24.8125 C 14.464844 24.8125 14.792969 25.09375 15.164062 25.441406 Z M 20.25 25.453125 C 20.582031 25.589844 20.671875 25.710938 20.671875 26.046875 C 20.671875 26.335938 20.65625 26.355469 20.402344 26.507812 C 20.015625 26.730469 19.984375 26.71875 19.984375 26.304688 C 19.976562 26.113281 19.941406 25.839844 19.890625 25.707031 C 19.839844 25.570312 19.796875 25.441406 19.796875 25.410156 C 19.796875 25.339844 20.035156 25.359375 20.25 25.453125 Z M 34.613281 26.222656 C 35.71875 27.398438 36.292969 29.074219 36.300781 31.167969 C 36.300781 32.648438 36.105469 33.925781 35.496094 36.539062 C 35.070312 38.371094 35.007812 38.574219 34.839844 38.753906 C 34.683594 38.914062 34.863281 38.914062 32.828125 38.753906 C 31.679688 38.660156 31.703125 38.679688 31.605469 37.988281 C 31.449219 36.957031 30.972656 31.261719 30.972656 30.414062 C 30.972656 29.945312 30.980469 29.933594 31.242188 29.613281 C 31.972656 28.730469 32.578125 27.964844 33.246094 27.09375 C 33.945312 26.179688 34.179688 25.921875 34.285156 25.921875 C 34.308594 25.921875 34.457031 26.058594 34.613281 26.222656 Z M 30.050781 28.484375 C 30.070312 29.707031 30.132812 31.382812 30.1875 32.21875 C 30.605469 38.90625 30.597656 38.617188 30.28125 38.703125 C 30.195312 38.722656 29.824219 38.765625 29.464844 38.789062 L 28.8125 38.832031 L 28.601562 38.65625 C 28.34375 38.445312 28.082031 37.894531 27.226562 35.796875 C 26.421875 33.804688 25.699219 31.660156 25.296875 30.105469 C 24.929688 28.667969 24.617188 26.933594 24.710938 26.839844 C 24.753906 26.796875 24.902344 26.796875 25.167969 26.855469 C 25.816406 26.976562 26.710938 26.890625 28.226562 26.546875 C 28.964844 26.378906 29.667969 26.242188 29.789062 26.25 L 30.007812 26.261719 Z M 30.050781 28.484375 "/>
</g>
</svg>
